<?xml version="1.0" standalone="no"?>
<!DOCTYPE svg PUBLIC "-//W3C//DTD SVG 20010904//EN"
 "http://www.w3.org/TR/2001/REC-SVG-20010904/DTD/svg10.dtd">
<svg version="1.0" xmlns="http://www.w3.org/2000/svg"
 width="103.000000pt" height="103.000000pt" viewBox="0 0 103.000000 103.000000"
 preserveAspectRatio="xMidYMid meet">
<metadata>
Created by potrace 1.14, written by Peter Selinger 2001-2017
</metadata>
<g transform="translate(0.000000,103.000000) scale(0.100000,-0.100000)"
fill="#000000" stroke="none">
<path d="M252 907 c-137 -69 -244 -128 -247 -138 -3 -9 -3 -23 0 -30 6 -17
487 -259 513 -258 9 0 127 55 262 123 248 124 268 138 238 173 -16 20 -486
253 -507 252 -9 -1 -125 -56 -259 -122z m456 -60 l183 -93 -185 -92 c-101 -50
-187 -92 -190 -92 -9 0 -377 183 -374 186 8 8 365 183 373 183 6 0 92 -42 193
-92z"/>
<path d="M10 545 c-28 -34 -7 -49 249 -179 l255 -128 253 126 c140 69 256 132
259 140 8 22 -14 56 -37 56 -10 0 -119 -50 -242 -112 -122 -61 -226 -111 -232
-111 -5 0 -112 50 -237 112 -125 61 -233 111 -241 111 -8 0 -20 -7 -27 -15z"/>
<path d="M16 315 c-17 -18 -20 -33 -8 -51 8 -13 487 -254 505 -254 20 -1 506
243 511 256 8 20 -5 52 -22 59 -11 4 -105 -37 -253 -110 l-235 -117 -220 109
c-256 129 -257 129 -278 108z"/>
</g>
</svg>
